<svg viewBox="0 0 90 120" xmlns="http://www.w3.org/2000/svg" fill="none">
  <!-- two interlocked rings -->
  <circle cx="34" cy="62" r="20" stroke="#1e293b" stroke-width="1.8"/>
  <circle cx="56" cy="62" r="20" stroke="#1e293b" stroke-width="1.8"/>
  <!-- diamond above rings -->
  <polygon points="45,20 55,36 45,46 35,36" stroke="#1e293b" stroke-width="1.5" fill="#e0e7ff" opacity="0.7"/>
  <line x1="35" y1="36" x2="55" y2="36" stroke="#1e293b" stroke-width="1"/>
  <line x1="45" y1="20" x2="35" y2="36" stroke="#1e293b" stroke-width="0.8" opacity="0.5"/>
  <line x1="45" y1="20" x2="55" y2="36" stroke="#1e293b" stroke-width="0.8" opacity="0.5"/>
  <!-- roses at bottom -->
  <circle cx="20" cy="103" r="9" stroke="#1e293b" stroke-width="1.3" fill="#fce7f3" opacity="0.7"/>
  <circle cx="17" cy="99" r="5" stroke="#1e293b" stroke-width="1" fill="#fce7f3" opacity="0.5"/>
  <line x1="20" y1="112" x2="18" y2="118" stroke="#1e293b" stroke-width="1.3"/>
  <line x1="18" y1="115" x2="14" y2="117" stroke="#1e293b" stroke-width="1"/>
  <circle cx="70" cy="103" r="9" stroke="#1e293b" stroke-width="1.3" fill="#fce7f3" opacity="0.7"/>
  <circle cx="67" cy="99" r="5" stroke="#1e293b" stroke-width="1" fill="#fce7f3" opacity="0.5"/>
  <line x1="70" y1="112" x2="72" y2="118" stroke="#1e293b" stroke-width="1.3"/>
  <line x1="72" y1="115" x2="76" y2="117" stroke="#1e293b" stroke-width="1"/>
  <!-- small hearts -->
  <path d="M43 90 Q43 85 46 87 Q49 85 49 90 Q49 95 46 97 Q43 95 43 90Z" stroke="#1e293b" stroke-width="1.2" fill="#fce7f3" opacity="0.8"/>
  <!-- sparkle stars -->
  <line x1="10" y1="30" x2="10" y2="38" stroke="#fbbf24" stroke-width="1.2"/>
  <line x1="6" y1="34" x2="14" y2="34" stroke="#fbbf24" stroke-width="1.2"/>
  <line x1="80" y1="25" x2="80" y2="33" stroke="#fbbf24" stroke-width="1.2"/>
  <line x1="76" y1="29" x2="84" y2="29" stroke="#fbbf24" stroke-width="1.2"/>
</svg>
