<svg viewBox="0 0 90 120" xmlns="http://www.w3.org/2000/svg" fill="none">
  <!-- balloons -->
  <ellipse cx="18" cy="28" rx="10" ry="13" stroke="#1e293b" stroke-width="1.4" fill="#fce7f3" opacity="0.7"/>
  <line x1="18" y1="41" x2="20" y2="60" stroke="#1e293b" stroke-width="1"/>
  <ellipse cx="72" cy="22" rx="9" ry="12" stroke="#1e293b" stroke-width="1.4" fill="#e0e7ff" opacity="0.7"/>
  <line x1="72" y1="34" x2="70" y2="60" stroke="#1e293b" stroke-width="1"/>
  <ellipse cx="45" cy="15" rx="11" ry="14" stroke="#1e293b" stroke-width="1.4" fill="#fef9c3" opacity="0.7"/>
  <line x1="45" y1="29" x2="45" y2="60" stroke="#1e293b" stroke-width="1"/>
  <!-- cake base tier -->
  <rect x="15" y="90" width="60" height="24" rx="3" stroke="#1e293b" stroke-width="1.6" fill="#fff"/>
  <path d="M15 98 Q30 94 45 98 Q60 102 75 98" stroke="#1e293b" stroke-width="1" fill="none"/>
  <!-- cake middle tier -->
  <rect x="22" y="72" width="46" height="20" rx="3" stroke="#1e293b" stroke-width="1.4" fill="#fff"/>
  <!-- frosting drips -->
  <path d="M22 79 Q26 85 30 79 Q34 85 38 79 Q42 85 46 79 Q50 85 54 79 Q58 85 62 79 Q66 85 68 79" stroke="#1e293b" stroke-width="1" fill="none"/>
  <!-- candles -->
  <rect x="32" y="57" width="4" height="16" rx="1.5" stroke="#1e293b" stroke-width="1.2" fill="#fce7f3"/>
  <rect x="43" y="53" width="4" height="20" rx="1.5" stroke="#1e293b" stroke-width="1.2" fill="#e0e7ff"/>
  <rect x="54" y="56" width="4" height="17" rx="1.5" stroke="#1e293b" stroke-width="1.2" fill="#fef9c3"/>
  <!-- flames -->
  <path d="M34 56 Q33 51 36 49 Q39 51 38 56" stroke="#f97316" stroke-width="1.2" fill="#fef9c3" opacity="0.9"/>
  <path d="M45 52 Q44 47 47 45 Q50 47 49 52" stroke="#f97316" stroke-width="1.2" fill="#fef9c3" opacity="0.9"/>
  <path d="M56 55 Q55 50 58 48 Q61 50 60 55" stroke="#f97316" stroke-width="1.2" fill="#fef9c3" opacity="0.9"/>
  <!-- confetti -->
  <rect x="8" y="95" width="5" height="2.5" rx="0.5" fill="#f472b6" transform="rotate(-35 10 96)"/>
  <rect x="78" y="88" width="5" height="2.5" rx="0.5" fill="#818cf8" transform="rotate(20 80 89)"/>
  <rect x="10" y="70" width="4" height="2" rx="0.5" fill="#34d399" transform="rotate(-15 12 71)"/>
  <circle cx="82" cy="70" r="2" fill="#fbbf24" opacity="0.8"/>
  <circle cx="6" cy="55" r="1.5" fill="#f472b6" opacity="0.7"/>
</svg>
