<svg viewBox="0 0 90 120" xmlns="http://www.w3.org/2000/svg" fill="none">
  <!-- party popper -->
  <path d="M15 105 L55 45" stroke="#1e293b" stroke-width="2" stroke-linecap="round"/>
  <path d="M15 105 L12 112 L22 110 Z" stroke="#1e293b" stroke-width="1.4" fill="#fbbf24" opacity="0.7"/>
  <path d="M12 112 L22 110 L18 118 Z" stroke="#1e293b" stroke-width="1.2" fill="#fbbf24" opacity="0.5"/>
  <!-- popper cone -->
  <path d="M15 105 L30 88 L45 70 L55 45 L40 56 L25 72 Z" stroke="#1e293b" stroke-width="1.4" fill="#fce7f3" opacity="0.6"/>
  <!-- confetti burst from top -->
  <rect x="55" y="35" width="8" height="4" rx="1" fill="#f472b6" transform="rotate(-30 59 37)"/>
  <rect x="62" y="20" width="7" height="3.5" rx="1" fill="#818cf8" transform="rotate(15 65 21)"/>
  <rect x="72" y="38" width="6" height="3" rx="1" fill="#34d399" transform="rotate(-50 75 39)"/>
  <rect x="45" y="18" width="7" height="3" rx="1" fill="#fbbf24" transform="rotate(40 48 19)"/>
  <rect x="78" y="52" width="6" height="3" rx="1" fill="#f472b6" transform="rotate(-20 81 53)"/>
  <!-- confetti dots -->
  <circle cx="68" cy="30" r="3" fill="#fbbf24" opacity="0.8"/>
  <circle cx="82" cy="42" r="2.5" fill="#f472b6" opacity="0.8"/>
  <circle cx="50" cy="25" r="2" fill="#818cf8" opacity="0.8"/>
  <circle cx="80" cy="20" r="2" fill="#34d399" opacity="0.8"/>
  <circle cx="40" cy="40" r="2" fill="#fb923c" opacity="0.7"/>
  <!-- star sparkles -->
  <line x1="75" y1="68" x2="75" y2="76" stroke="#fbbf24" stroke-width="1.5"/>
  <line x1="71" y1="72" x2="79" y2="72" stroke="#fbbf24" stroke-width="1.5"/>
  <line x1="20" y1="30" x2="20" y2="36" stroke="#fbbf24" stroke-width="1.2"/>
  <line x1="17" y1="33" x2="23" y2="33" stroke="#fbbf24" stroke-width="1.2"/>
  <!-- ribbon streamers -->
  <path d="M60 45 Q70 55 65 68" stroke="#f472b6" stroke-width="1.2" fill="none" stroke-dasharray="3,2"/>
  <path d="M55 43 Q45 60 52 75" stroke="#818cf8" stroke-width="1.2" fill="none" stroke-dasharray="3,2"/>
</svg>
