<svg viewBox="0 0 90 120" xmlns="http://www.w3.org/2000/svg" fill="none">
  <!-- clouds -->
  <path d="M10 35 Q10 25 20 25 Q22 18 30 18 Q38 18 40 25 Q48 24 50 30 Q52 25 58 26 Q66 26 66 34 Q68 40 62 40 L14 40 Q10 40 10 35Z" stroke="#1e293b" stroke-width="1.3" fill="#f0f9ff" opacity="0.6"/>
  <path d="M50 55 Q50 48 57 48 Q60 44 65 44 Q70 44 72 48 Q77 47 78 52 Q80 56 76 58 L52 58 Q50 57 50 55Z" stroke="#1e293b" stroke-width="1.2" fill="#f0f9ff" opacity="0.5"/>
  <!-- airplane body -->
  <path d="M12 72 L65 50 L72 52 L68 58 L22 78Z" stroke="#1e293b" stroke-width="1.5" fill="#e0e7ff" opacity="0.7"/>
  <!-- tail fin -->
  <path d="M65 50 L72 40 L72 52Z" stroke="#1e293b" stroke-width="1.3" fill="#c7d2fe" opacity="0.6"/>
  <!-- side wing -->
  <path d="M35 65 L55 42 L68 50 L50 70Z" stroke="#1e293b" stroke-width="1.2" fill="#c7d2fe" opacity="0.5"/>
  <!-- nose/cockpit -->
  <path d="M22 78 Q8 82 12 72Z" stroke="#1e293b" stroke-width="1.2" fill="#e0e7ff" opacity="0.6"/>
  <!-- window -->
  <circle cx="30" cy="72" r="3.5" stroke="#1e293b" stroke-width="1"/>
  <circle cx="42" cy="67" r="3.5" stroke="#1e293b" stroke-width="1"/>
  <!-- vapor trail -->
  <path d="M12 73 Q0 85 0 100" stroke="#1e293b" stroke-width="1" stroke-dasharray="3,3" opacity="0.5"/>
  <!-- waving hand at bottom -->
  <path d="M55 115 L55 95 Q55 88 60 88 L60 78 Q60 74 63 74 Q66 74 66 78 L66 86 Q66 82 69 82 Q72 82 72 86 L72 84 Q72 80 75 80 Q78 80 78 88 L78 95 Q82 97 83 103 L83 115Z" stroke="#1e293b" stroke-width="1.3" fill="#fddcb5" opacity="0.7"/>
  <!-- star sparkles -->
  <line x1="10" y1="100" x2="10" y2="106" stroke="#fbbf24" stroke-width="1.2"/>
  <line x1="7" y1="103" x2="13" y2="103" stroke="#fbbf24" stroke-width="1.2"/>
</svg>
