<svg viewBox="0 0 90 120" xmlns="http://www.w3.org/2000/svg" fill="none">
  <!-- left hand -->
  <path d="M8 88 Q8 70 20 68 L40 68 Q46 68 46 76 L46 92 Q46 100 38 102 L22 102 Q8 100 8 88Z" stroke="#1e293b" stroke-width="1.4" fill="#fddcb5" opacity="0.6"/>
  <!-- right hand -->
  <path d="M82 88 Q82 70 70 68 L50 68 Q44 68 44 76 L44 92 Q44 100 52 102 L68 102 Q82 100 82 88Z" stroke="#1e293b" stroke-width="1.4" fill="#fddcb5" opacity="0.6"/>
  <!-- clasped fingers overlap -->
  <rect x="38" y="68" width="14" height="8" rx="4" stroke="#1e293b" stroke-width="1.2" fill="#fddcb5" opacity="0.7"/>
  <!-- friendship bracelet -->
  <rect x="32" y="90" width="26" height="5" rx="2.5" stroke="#1e293b" stroke-width="1.2" fill="#fce7f3" opacity="0.6"/>
  <line x1="34" y1="93" x2="56" y2="93" stroke="#fbbf24" stroke-width="0.9" stroke-dasharray="3,2"/>
  <!-- floating hearts above hands -->
  <path d="M24 42 Q24 36 28 38 Q32 36 32 42 Q32 48 28 52 Q24 48 24 42Z" stroke="#1e293b" stroke-width="1.3" fill="#fce7f3" opacity="0.8"/>
  <path d="M58 36 Q58 31 61.5 33 Q65 31 65 36 Q65 41 61.5 44 Q58 41 58 36Z" stroke="#1e293b" stroke-width="1.2" fill="#bae6fd" opacity="0.8"/>
  <path d="M40 22 Q40 18 43 20 Q46 18 46 22 Q46 26 43 28 Q40 26 40 22Z" stroke="#1e293b" stroke-width="1.1" fill="#fbbf24" opacity="0.7"/>
  <path d="M12 58 Q12 55 14 56.5 Q16 55 16 58 Q16 61 14 62.5 Q12 61 12 58Z" stroke="#1e293b" stroke-width="0.9" fill="#fce7f3" opacity="0.6"/>
  <path d="M74 54 Q74 51 76 52.5 Q78 51 78 54 Q78 57 76 58.5 Q74 57 74 54Z" stroke="#1e293b" stroke-width="0.9" fill="#fce7f3" opacity="0.6"/>
  <!-- stars -->
  <line x1="10" y1="22" x2="10" y2="28" stroke="#fbbf24" stroke-width="1.2"/>
  <line x1="7" y1="25" x2="13" y2="25" stroke="#fbbf24" stroke-width="1.2"/>
  <line x1="80" y1="18" x2="80" y2="24" stroke="#fbbf24" stroke-width="1.2"/>
  <line x1="77" y1="21" x2="83" y2="21" stroke="#fbbf24" stroke-width="1.2"/>
  <!-- confetti at bottom -->
  <rect x="18" y="112" width="6" height="3" rx="0.5" fill="#f472b6" transform="rotate(-25 21 113)"/>
  <rect x="66" y="110" width="5" height="2.5" rx="0.5" fill="#818cf8" transform="rotate(15 68 111)"/>
</svg>
