<svg viewBox="0 0 90 120" xmlns="http://www.w3.org/2000/svg" fill="none">
  <!-- four-leaf clover -->
  <circle cx="45" cy="52" r="14" stroke="#1e293b" stroke-width="1.4" fill="#d1fae5" opacity="0.6"/>
  <circle cx="45" cy="28" r="14" stroke="#1e293b" stroke-width="1.4" fill="#d1fae5" opacity="0.6"/>
  <circle cx="21" cy="40" r="14" stroke="#1e293b" stroke-width="1.4" fill="#d1fae5" opacity="0.6"/>
  <circle cx="69" cy="40" r="14" stroke="#1e293b" stroke-width="1.4" fill="#d1fae5" opacity="0.6"/>
  <circle cx="45" cy="40" r="6" stroke="#1e293b" stroke-width="1.2" fill="#86efac" opacity="0.6"/>
  <!-- stem -->
  <path d="M45 66 Q43 85 38 98" stroke="#1e293b" stroke-width="1.4" stroke-linecap="round"/>
  <!-- horseshoe -->
  <path d="M20 112 Q12 92 22 78 Q32 68 45 68 Q58 68 68 78 Q78 92 70 112" stroke="#1e293b" stroke-width="2" stroke-linecap="round"/>
  <line x1="16" y1="112" x2="24" y2="112" stroke="#1e293b" stroke-width="2"/>
  <line x1="66" y1="112" x2="74" y2="112" stroke="#1e293b" stroke-width="2"/>
  <!-- nail holes in horseshoe -->
  <circle cx="23" cy="104" r="2" stroke="#1e293b" stroke-width="1"/>
  <circle cx="67" cy="104" r="2" stroke="#1e293b" stroke-width="1"/>
  <circle cx="18" cy="90" r="2" stroke="#1e293b" stroke-width="1"/>
  <circle cx="72" cy="90" r="2" stroke="#1e293b" stroke-width="1"/>
  <!-- sparkle stars -->
  <line x1="12" y1="18" x2="12" y2="26" stroke="#fbbf24" stroke-width="1.5"/>
  <line x1="8" y1="22" x2="16" y2="22" stroke="#fbbf24" stroke-width="1.5"/>
  <line x1="78" y1="14" x2="78" y2="22" stroke="#fbbf24" stroke-width="1.5"/>
  <line x1="74" y1="18" x2="82" y2="18" stroke="#fbbf24" stroke-width="1.5"/>
</svg>
