<svg viewBox="0 0 90 120" xmlns="http://www.w3.org/2000/svg" fill="none">
  <!-- hand outline (palm up) -->
  <path d="M25 118 L25 70 Q25 60 31 60 L31 44 Q31 38 35 38 Q39 38 39 44 L39 56 Q39 50 43 50 Q47 50 47 56 L47 52 Q47 46 51 46 Q55 46 55 52 L55 55 Q55 50 59 50 Q63 50 63 58 L63 70 Q68 72 70 80 L70 118Z" stroke="#1e293b" stroke-width="1.4" fill="#fef3c7" opacity="0.6"/>
  <!-- mehndi central mandala on palm -->
  <circle cx="47" cy="82" r="11" stroke="#1e293b" stroke-width="1.1" fill="none"/>
  <circle cx="47" cy="82" r="6" stroke="#1e293b" stroke-width="0.9" fill="none"/>
  <circle cx="47" cy="82" r="2.5" stroke="#1e293b" stroke-width="0.9" fill="#92400e" opacity="0.35"/>
  <line x1="47" y1="71" x2="47" y2="93" stroke="#1e293b" stroke-width="0.8" opacity="0.4"/>
  <line x1="36" y1="82" x2="58" y2="82" stroke="#1e293b" stroke-width="0.8" opacity="0.4"/>
  <line x1="39" y1="74" x2="55" y2="90" stroke="#1e293b" stroke-width="0.8" opacity="0.4"/>
  <line x1="55" y1="74" x2="39" y2="90" stroke="#1e293b" stroke-width="0.8" opacity="0.4"/>
  <!-- finger pattern dots -->
  <circle cx="33" cy="50" r="2" stroke="#1e293b" stroke-width="0.8" fill="#92400e" opacity="0.3"/>
  <circle cx="41" cy="44" r="2" stroke="#1e293b" stroke-width="0.8" fill="#92400e" opacity="0.3"/>
  <circle cx="49" cy="42" r="2" stroke="#1e293b" stroke-width="0.8" fill="#92400e" opacity="0.3"/>
  <circle cx="57" cy="44" r="2" stroke="#1e293b" stroke-width="0.8" fill="#92400e" opacity="0.3"/>
  <!-- wrist bracelet -->
  <path d="M28 100 Q47 96 66 100" stroke="#1e293b" stroke-width="1.2" fill="none"/>
  <path d="M27 104 Q47 100 67 104" stroke="#1e293b" stroke-width="0.8" stroke-dasharray="2,2" fill="none" opacity="0.5"/>
  <!-- marigold flower top left -->
  <circle cx="16" cy="22" r="11" stroke="#1e293b" stroke-width="1.2" fill="#fef3c7" opacity="0.6"/>
  <circle cx="16" cy="22" r="6" stroke="#1e293b" stroke-width="1" fill="#f97316" opacity="0.4"/>
  <circle cx="16" cy="22" r="2.5" stroke="#1e293b" stroke-width="0.9" fill="#92400e" opacity="0.5"/>
  <line x1="16" y1="11" x2="16" y2="6" stroke="#1e293b" stroke-width="1.2"/>
  <!-- dholki drum top right -->
  <ellipse cx="72" cy="18" rx="16" ry="8" stroke="#1e293b" stroke-width="1.3" fill="#fef3c7" opacity="0.5"/>
  <rect x="56" y="15" width="32" height="16" rx="4" stroke="#1e293b" stroke-width="1.2" fill="#fef3c7" opacity="0.4"/>
  <ellipse cx="72" cy="31" rx="16" ry="8" stroke="#1e293b" stroke-width="1.3" fill="#fef3c7" opacity="0.5"/>
  <!-- drum lacing -->
  <line x1="56" y1="18" x2="88" y2="28" stroke="#1e293b" stroke-width="0.8" opacity="0.4"/>
  <line x1="88" y1="18" x2="56" y2="28" stroke="#1e293b" stroke-width="0.8" opacity="0.4"/>
</svg>
