<svg viewBox="0 0 90 120" xmlns="http://www.w3.org/2000/svg" fill="none">
  <!-- crescent moon -->
  <circle cx="62" cy="20" r="14" stroke="#1e293b" stroke-width="1.5" fill="#fef9c3" opacity="0.8"/>
  <circle cx="69" cy="16" r="11" stroke="none" fill="white"/>
  <!-- star -->
  <polygon points="76,11 78,15 83,15 79,18 81,22 76,19 71,22 73,18 69,15 74,15" stroke="#1e293b" stroke-width="1" fill="#fef9c3" opacity="0.9"/>
  <!-- night sky dots -->
  <circle cx="10" cy="15" r="1.2" fill="#1e293b" opacity="0.4"/>
  <circle cx="28" cy="8" r="1.5" fill="#1e293b" opacity="0.4"/>
  <circle cx="44" cy="12" r="1" fill="#1e293b" opacity="0.35"/>
  <!-- mosque silhouette small -->
  <rect x="18" y="72" width="54" height="32" stroke="#1e293b" stroke-width="1.3" fill="#f0f9ff" opacity="0.4"/>
  <path d="M28 72 Q28 60 45 57 Q62 60 62 72" stroke="#1e293b" stroke-width="1.3" fill="#e0f2fe" opacity="0.4"/>
  <line x1="45" y1="57" x2="45" y2="50" stroke="#1e293b" stroke-width="1.2"/>
  <circle cx="45" cy="49" r="2" stroke="#1e293b" stroke-width="1" fill="#fef9c3" opacity="0.8"/>
  <rect x="10" y="60" width="6" height="28" rx="1.5" stroke="#1e293b" stroke-width="1.1" fill="#f0f9ff" opacity="0.4"/>
  <polygon points="10,60 13,52 16,60" stroke="#1e293b" stroke-width="1" fill="#e0f2fe" opacity="0.4"/>
  <rect x="74" y="60" width="6" height="28" rx="1.5" stroke="#1e293b" stroke-width="1.1" fill="#f0f9ff" opacity="0.4"/>
  <polygon points="74,60 77,52 80,60" stroke="#1e293b" stroke-width="1" fill="#e0f2fe" opacity="0.4"/>
  <!-- lantern hanging center -->
  <line x1="45" y1="38" x2="45" y2="42" stroke="#1e293b" stroke-width="1.2"/>
  <rect x="38" y="42" width="14" height="18" rx="3" stroke="#1e293b" stroke-width="1.3" fill="#fef9c3" opacity="0.7"/>
  <polygon points="38,42 45,36 52,42" stroke="#1e293b" stroke-width="1.1" fill="#fef9c3" opacity="0.5"/>
  <line x1="41" y1="48" x2="49" y2="48" stroke="#1e293b" stroke-width="0.8" opacity="0.5"/>
  <line x1="41" y1="52" x2="49" y2="52" stroke="#1e293b" stroke-width="0.8" opacity="0.5"/>
  <!-- dates bowl at bottom -->
  <ellipse cx="45" cy="113" rx="22" ry="6" stroke="#1e293b" stroke-width="1.2" fill="#fef3c7" opacity="0.6"/>
  <ellipse cx="36" cy="109" rx="6" ry="3.5" stroke="#1e293b" stroke-width="1" fill="#92400e" opacity="0.5"/>
  <ellipse cx="45" cy="107" rx="6" ry="3.5" stroke="#1e293b" stroke-width="1" fill="#92400e" opacity="0.5"/>
  <ellipse cx="54" cy="109" rx="6" ry="3.5" stroke="#1e293b" stroke-width="1" fill="#92400e" opacity="0.5"/>
</svg>
