<svg viewBox="0 0 90 120" xmlns="http://www.w3.org/2000/svg" fill="none">
  <!-- gift box body -->
  <rect x="18" y="62" width="54" height="48" rx="3" stroke="#1e293b" stroke-width="1.6" fill="#fef9c3" opacity="0.6"/>
  <!-- gift box lid -->
  <rect x="14" y="52" width="62" height="14" rx="3" stroke="#1e293b" stroke-width="1.5" fill="#fef9c3" opacity="0.7"/>
  <!-- vertical ribbon on box -->
  <line x1="45" y1="62" x2="45" y2="110" stroke="#ef4444" stroke-width="1.8"/>
  <!-- horizontal ribbon on lid -->
  <line x1="14" y1="59" x2="76" y2="59" stroke="#ef4444" stroke-width="1.8"/>
  <!-- bow left loop -->
  <path d="M45 52 Q30 38 22 44 Q18 50 30 52 Q38 52 45 52Z" stroke="#1e293b" stroke-width="1.4" fill="#fce7f3" opacity="0.6"/>
  <!-- bow right loop -->
  <path d="M45 52 Q60 38 68 44 Q72 50 60 52 Q52 52 45 52Z" stroke="#1e293b" stroke-width="1.4" fill="#fce7f3" opacity="0.6"/>
  <!-- bow knot -->
  <circle cx="45" cy="52" r="4" stroke="#1e293b" stroke-width="1.2" fill="#f472b6" opacity="0.7"/>
  <!-- left ribbon tail -->
  <path d="M45 52 Q38 58 32 56" stroke="#1e293b" stroke-width="1.2" fill="none"/>
  <!-- right ribbon tail -->
  <path d="M45 52 Q52 58 58 56" stroke="#1e293b" stroke-width="1.2" fill="none"/>
  <!-- floating hearts -->
  <path d="M12 28 Q12 22 16 24 Q20 22 20 28 Q20 34 16 37 Q12 34 12 28Z" stroke="#1e293b" stroke-width="1.2" fill="#fce7f3" opacity="0.7"/>
  <path d="M68 22 Q68 17 71 19 Q74 17 74 22 Q74 27 71 30 Q68 27 68 22Z" stroke="#1e293b" stroke-width="1.2" fill="#fce7f3" opacity="0.7"/>
  <path d="M78 40 Q78 36 80.5 38 Q83 36 83 40 Q83 44 80.5 46 Q78 44 78 40Z" stroke="#1e293b" stroke-width="1" fill="#fce7f3" opacity="0.6"/>
  <!-- sparkle -->
  <line x1="10" y1="50" x2="10" y2="56" stroke="#fbbf24" stroke-width="1.2"/>
  <line x1="7" y1="53" x2="13" y2="53" stroke="#fbbf24" stroke-width="1.2"/>
</svg>
