<svg xmlns="http://www.w3.org/2000/svg" viewBox="0 0 32 32" width="32" height="32">
  <defs>
    <linearGradient id="bg" x1="0%" y1="0%" x2="100%" y2="100%">
      <stop offset="0%" stop-color="#0d9488"/>
      <stop offset="100%" stop-color="#0f766e"/>
    </linearGradient>
    <linearGradient id="sp" x1="0%" y1="0%" x2="100%" y2="100%">
      <stop offset="0%" stop-color="#fbbf24"/>
      <stop offset="100%" stop-color="#f59e0b"/>
    </linearGradient>
  </defs>
  <rect width="32" height="32" rx="8" fill="url(#bg)"/>
  <!-- card body -->
  <rect x="5" y="9" width="22" height="15" rx="3" fill="white" fill-opacity="0.18" stroke="white" stroke-width="1.2"/>
  <!-- envelope flap -->
  <path d="M5 12 L16 18 L27 12" stroke="white" stroke-width="1.2" stroke-linecap="round" stroke-linejoin="round" fill="none"/>
  <!-- heart -->
  <path d="M16 21 C16 21 12 18 12 15.5 C12 14.1 13.1 13 14.5 13 C15.2 13 15.7 13.4 16 13.9 C16.3 13.4 16.8 13 17.5 13 C18.9 13 20 14.1 20 15.5 C20 18 16 21 16 21Z" fill="white" fill-opacity="0.9"/>
  <!-- sparkle -->
  <path d="M25 4 C25 5.6 25.8 6.3 27.5 6.3 C25.8 6.3 25 7 25 8.5 C25 7 24.2 6.3 22.5 6.3 C24.2 6.3 25 5.6 25 4Z" fill="url(#sp)"/>
</svg>
