<svg xmlns="http://www.w3.org/2000/svg" viewBox="0 0 320 427" width="320" height="427">
<defs><linearGradient id="bg" x1="0" y1="0" x2="0" y2="1"><stop offset="0%" stop-color="#1e2a38"/><stop offset="100%" stop-color="#2d3e50"/></linearGradient></defs>
<rect width="320" height="427" fill="url(#bg)"/>
<line x1="160" y1="95" x2="105" y2="140" stroke="#94a3b8" stroke-width="1.2" opacity=".4"/>
<line x1="160" y1="95" x2="160" y2="145" stroke="#94a3b8" stroke-width="1.5" opacity=".5"/>
<line x1="160" y1="95" x2="215" y2="140" stroke="#94a3b8" stroke-width="1.2" opacity=".4"/>
<circle cx="160" cy="88" r="12" fill="#fef9c3" opacity=".35"/>
<line x1="160" y1="427" x2="160" y2="175" stroke="#4b5563" stroke-width="5"/>
<ellipse cx="120" cy="282" rx="48" ry="24" fill="#4b5563" opacity=".6" transform="rotate(-28,120,282)"/>
<ellipse cx="200" cy="264" rx="48" ry="24" fill="#4b5563" opacity=".55" transform="rotate(26,200,264)"/>
<ellipse cx="124" cy="230" rx="40" ry="20" fill="#374151" opacity=".55" transform="rotate(-20,124,230)"/>
<ellipse cx="196" cy="214" rx="40" ry="20" fill="#374151" opacity=".5" transform="rotate(18,196,214)"/>
<path d="M40 368 Q160 352 280 368" stroke="#64748b" stroke-width="2" stroke-dasharray="5,4" fill="none" opacity=".45"/>
<path d="M60 390 Q160 376 260 390" stroke="#64748b" stroke-width="1.5" stroke-dasharray="4,5" fill="none" opacity=".35"/>
<defs><linearGradient id="sc" x1="0" y1="0" x2="0" y2="1"><stop offset="0%" stop-color="rgba(0,0,0,0)"/><stop offset="100%" stop-color="rgba(0,0,0,0.72)"/></linearGradient></defs><rect x="0" y="330" width="320" height="97" fill="url(#sc)"/></svg>