<svg xmlns="http://www.w3.org/2000/svg" viewBox="0 0 320 427" width="320" height="427">
<defs><linearGradient id="bg" x1="0" y1="0" x2="0" y2="1"><stop offset="0%" stop-color="#0a1628"/><stop offset="100%" stop-color="#064e3b"/></linearGradient></defs>
<rect width="320" height="427" fill="url(#bg)"/>
<circle cx="14" cy="12" r="2" fill="#fff" opacity=".6"/><circle cx="40" cy="8" r="1.5" fill="#fff" opacity=".5"/>
<circle cx="80" cy="20" r="2" fill="#fff" opacity=".6"/><circle cx="130" cy="10" r="1.5" fill="#fff" opacity=".5"/>
<circle cx="200" cy="18" r="2" fill="#fff" opacity=".6"/><circle cx="280" cy="12" r="1.5" fill="#fff" opacity=".5"/>
<circle cx="55" cy="40" r="1.5" fill="#fff" opacity=".4"/><circle cx="170" cy="35" r="1" fill="#fff" opacity=".4"/>
<circle cx="240" cy="45" r="1.5" fill="#fff" opacity=".5"/>
<circle cx="190" cy="55" r="36" fill="#fde68a" opacity=".95"/>
<circle cx="206" cy="45" r="28" fill="#0a1628"/>
<polygon points="228,32 231,42 241,42 233,48 236,58 228,52 220,58 223,48 215,42 225,42" fill="#fde68a" opacity=".95"/>
<rect x="20" y="240" width="280" height="130" fill="#0f2d1f"/>
<path d="M60 240 Q60 196 160 186 Q260 196 260 240" fill="#0d3320"/>
<line x1="160" y1="186" x2="160" y2="172" stroke="#fde68a" stroke-width="2.5"/>
<circle cx="160" cy="170" r="5" fill="#fde68a"/>
<path d="M20 240 Q20 212 44 206 Q68 212 68 240" fill="#0d3320"/>
<path d="M252 240 Q252 212 276 206 Q300 212 300 240" fill="#0d3320"/>
<rect x="8" y="192" width="20" height="78" rx="4" fill="#0d3320"/>
<polygon points="8,192 18,168 28,192" fill="#0d3320"/>
<rect x="292" y="192" width="20" height="78" rx="4" fill="#0d3320"/>
<polygon points="292,192 302,168 312,192" fill="#0d3320"/>
<rect x="38" y="130" width="22" height="32" rx="4" fill="#fbbf24" opacity=".85"/>
<polygon points="38,130 49,112 60,130" fill="#fbbf24" opacity=".75"/>
<line x1="49" y1="109" x2="49" y2="112" stroke="#fbbf24" stroke-width="2.5"/>
<rect x="128" y="110" width="22" height="32" rx="4" fill="#fb923c" opacity=".85"/>
<polygon points="128,110 139,92 150,110" fill="#fb923c" opacity=".75"/>
<line x1="139" y1="89" x2="139" y2="92" stroke="#fb923c" stroke-width="2.5"/>
<rect x="248" y="118" width="20" height="30" rx="4" fill="#fbbf24" opacity=".85"/>
<polygon points="248,118 258,102 268,118" fill="#fbbf24" opacity=".75"/>
<defs><linearGradient id="sc" x1="0" y1="0" x2="0" y2="1"><stop offset="0%" stop-color="rgba(0,0,0,0)"/><stop offset="100%" stop-color="rgba(0,0,0,0.72)"/></linearGradient></defs><rect x="0" y="330" width="320" height="97" fill="url(#sc)"/></svg>