<svg xmlns="http://www.w3.org/2000/svg" viewBox="0 0 320 427" width="320" height="427">
<defs><linearGradient id="bg" x1="0" y1="0" x2="0.3" y2="1"><stop offset="0%" stop-color="#4a0e2e"/><stop offset="100%" stop-color="#c2185b"/></linearGradient></defs>
<rect width="320" height="427" fill="url(#bg)"/>
<polygon points="160,75 198,130 160,168 122,130" fill="#fce7f3" stroke="#fbbf24" stroke-width="3" opacity=".95"/>
<polygon points="160,75 198,130 160,110" fill="#fde68a" opacity=".55"/>
<line x1="122" y1="130" x2="198" y2="130" stroke="#fbbf24" stroke-width="2" opacity=".6"/>
<circle cx="100" cy="250" r="62" fill="none" stroke="#fde68a" stroke-width="5.5"/>
<circle cx="220" cy="250" r="62" fill="none" stroke="#fde68a" stroke-width="5.5"/>
<path d="M108 200 Q108 178 121 184 Q134 178 134 200 Q134 224 121 235 Q108 224 108 200Z" fill="#fce7f3" opacity=".7"/>
<path d="M186 190 Q186 170 197 175 Q208 170 208 190 Q208 212 197 222 Q186 212 186 190Z" fill="#fce7f3" opacity=".7"/>
<ellipse cx="30" cy="55" rx="20" ry="11" fill="#f9a8d4" opacity=".3" transform="rotate(-20,30,55)"/>
<ellipse cx="290" cy="70" rx="18" ry="10" fill="#f9a8d4" opacity=".25" transform="rotate(15,290,70)"/>
<ellipse cx="30" cy="360" rx="20" ry="11" fill="#f9a8d4" opacity=".25" transform="rotate(-30,30,360)"/>
<ellipse cx="290" cy="350" rx="18" ry="10" fill="#f9a8d4" opacity=".2" transform="rotate(25,290,350)"/>
<defs><linearGradient id="sc" x1="0" y1="0" x2="0" y2="1"><stop offset="0%" stop-color="rgba(0,0,0,0)"/><stop offset="100%" stop-color="rgba(0,0,0,0.72)"/></linearGradient></defs><rect x="0" y="330" width="320" height="97" fill="url(#sc)"/></svg>