<svg xmlns="http://www.w3.org/2000/svg" viewBox="0 0 320 427" width="320" height="427">
<defs><linearGradient id="bg" x1="0" y1="0" x2="0.3" y2="1"><stop offset="0%" stop-color="#1c0800"/><stop offset="100%" stop-color="#9a3412"/></linearGradient></defs>
<rect width="320" height="427" fill="url(#bg)"/>
<circle cx="160" cy="95" r="40" fill="#fddcb5" stroke="#f97316" stroke-width="3"/>
<circle cx="160" cy="78" r="18" fill="#fddcb5"/>
<path d="M110 175 Q110 140 160 132 Q210 140 210 175 L218 300 L102 300Z" fill="#fddcb5" stroke="#f97316" stroke-width="2.5"/>
<circle cx="70" cy="150" r="30" fill="#fddcb5" stroke="#fbbf24" stroke-width="2.5"/>
<circle cx="70" cy="137" r="13" fill="#fddcb5"/>
<path d="M34 218 Q34 195 70 190 Q106 195 106 218 L110 300 L30 300Z" fill="#fddcb5" stroke="#fbbf24" stroke-width="2"/>
<circle cx="250" cy="148" r="30" fill="#fddcb5" stroke="#a78bfa" stroke-width="2.5"/>
<circle cx="250" cy="135" r="13" fill="#fddcb5"/>
<path d="M214 218 Q214 195 250 190 Q286 195 286 218 L290 300 L210 300Z" fill="#fddcb5" stroke="#a78bfa" stroke-width="2"/>
<rect x="0" y="295" width="320" height="45" fill="#92400e" opacity=".4"/>
<rect x="15" y="185" width="14" height="7" rx="2" fill="#f472b6" transform="rotate(-25,22,188)" opacity=".8"/>
<rect x="288" y="178" width="13" height="6" rx="2" fill="#34d399" transform="rotate(18,294,181)" opacity=".8"/>
<defs><linearGradient id="sc" x1="0" y1="0" x2="0" y2="1"><stop offset="0%" stop-color="rgba(0,0,0,0)"/><stop offset="100%" stop-color="rgba(0,0,0,0.72)"/></linearGradient></defs><rect x="0" y="330" width="320" height="97" fill="url(#sc)"/></svg>