<svg xmlns="http://www.w3.org/2000/svg" viewBox="0 0 320 427" width="320" height="427">
<defs><linearGradient id="bg" x1="0" y1="0" x2="0" y2="1"><stop offset="0%" stop-color="#1a0030"/><stop offset="100%" stop-color="#be185d"/></linearGradient></defs>
<rect width="320" height="427" fill="url(#bg)"/>
<ellipse cx="55" cy="100" rx="30" ry="38" fill="#f472b6" opacity=".85"/>
<path d="M55 138 Q53 160 57 182" stroke="#f472b6" stroke-width="2.5" fill="none"/>
<ellipse cx="160" cy="78" rx="28" ry="35" fill="#fbbf24" opacity=".85"/>
<path d="M160 113 Q158 135 162 158" stroke="#fbbf24" stroke-width="2.5" fill="none"/>
<ellipse cx="265" cy="92" rx="26" ry="33" fill="#818cf8" opacity=".85"/>
<path d="M265 125 Q263 147 267 170" stroke="#818cf8" stroke-width="2.5" fill="none"/>
<path d="M30 365 L150 120" stroke="#fbbf24" stroke-width="7" stroke-linecap="round"/>
<path d="M30 365 L14 400 L56 392 Z" fill="#fbbf24"/>
<path d="M30 365 L80 335 L142 268 L150 120 L100 205 L52 274 Z" fill="#fde68a" opacity=".3" stroke="#fbbf24" stroke-width="1.5"/>
<rect x="160" y="98" width="18" height="9" rx="2" fill="#f472b6" transform="rotate(-25,169,102)" opacity=".9"/>
<rect x="185" y="80" width="16" height="8" rx="2" fill="#34d399" transform="rotate(15,193,84)" opacity=".9"/>
<rect x="208" y="108" width="15" height="7" rx="2" fill="#fbbf24" transform="rotate(-50,215,111)" opacity=".9"/>
<rect x="230" y="84" width="14" height="7" rx="2" fill="#818cf8" transform="rotate(20,237,87)" opacity=".9"/>
<circle cx="195" cy="66" r="8" fill="#fb923c" opacity=".8"/>
<circle cx="240" cy="72" r="7" fill="#f472b6" opacity=".8"/>
<defs><linearGradient id="sc" x1="0" y1="0" x2="0" y2="1"><stop offset="0%" stop-color="rgba(0,0,0,0)"/><stop offset="100%" stop-color="rgba(0,0,0,0.72)"/></linearGradient></defs><rect x="0" y="330" width="320" height="97" fill="url(#sc)"/></svg>