<svg xmlns="http://www.w3.org/2000/svg" viewBox="0 0 320 427" width="320" height="427">
<defs><linearGradient id="bg" x1="0" y1="0" x2="0.2" y2="1"><stop offset="0%" stop-color="#0d1b4c"/><stop offset="100%" stop-color="#374151"/></linearGradient></defs>
<rect width="320" height="427" fill="url(#bg)"/>
<circle cx="20" cy="22" r="2" fill="#fbbf24" opacity=".7"/><circle cx="300" cy="28" r="2" fill="#fbbf24" opacity=".6"/>
<rect x="45" y="140" width="230" height="240" rx="8" fill="#1e3a8a" stroke="#93c5fd" stroke-width="2"/>
<rect x="45" y="140" width="230" height="32" rx="8" fill="#93c5fd" opacity=".3"/>
<rect x="65" y="190" width="80" height="60" rx="4" fill="#bae6fd" opacity=".3"/>
<rect x="175" y="190" width="80" height="60" rx="4" fill="#bae6fd" opacity=".3"/>
<rect x="65" y="270" width="80" height="60" rx="4" fill="#bae6fd" opacity=".2"/>
<rect x="175" y="270" width="80" height="60" rx="4" fill="#bae6fd" opacity=".2"/>
<rect x="20" y="178" width="16" height="8" rx="2" fill="#f472b6" transform="rotate(-30,28,182)" opacity=".9"/>
<rect x="285" y="165" width="14" height="7" rx="2" fill="#818cf8" transform="rotate(20,292,168)" opacity=".9"/>
<rect x="55" y="108" width="14" height="7" rx="2" fill="#34d399" transform="rotate(-45,62,111)" opacity=".8"/>
<rect x="252" y="100" width="13" height="6" rx="2" fill="#fbbf24" transform="rotate(15,258,103)" opacity=".8"/>
<circle cx="35" cy="100" r="9" fill="#f472b6" opacity=".7"/>
<circle cx="285" cy="92" r="8" fill="#818cf8" opacity=".65"/>
<circle cx="160" cy="72" r="30" fill="#fbbf24" opacity=".6"/>
<polygon points="160,50 168,74 194,74 174,88 180,112 160,98 140,112 146,88 126,74 152,74" fill="#fde68a"/>
<defs><linearGradient id="sc" x1="0" y1="0" x2="0" y2="1"><stop offset="0%" stop-color="rgba(0,0,0,0)"/><stop offset="100%" stop-color="rgba(0,0,0,0.72)"/></linearGradient></defs><rect x="0" y="330" width="320" height="97" fill="url(#sc)"/></svg>