<svg xmlns="http://www.w3.org/2000/svg" viewBox="0 0 320 427" width="320" height="427">
<defs><linearGradient id="bg" x1="0" y1="0" x2="0.1" y2="1"><stop offset="0%" stop-color="#030712"/><stop offset="100%" stop-color="#0c1445"/></linearGradient></defs>
<rect width="320" height="427" fill="url(#bg)"/>
<circle cx="20" cy="20" r="2" fill="#fff" opacity=".7"/><circle cx="80" cy="12" r="1.5" fill="#fff" opacity=".6"/>
<circle cx="200" cy="25" r="2" fill="#fff" opacity=".7"/><circle cx="270" cy="15" r="1.5" fill="#fff" opacity=".6"/>
<circle cx="300" cy="40" r="2" fill="#fff" opacity=".6"/>
<ellipse cx="160" cy="190" rx="60" ry="70" fill="#1d4ed8" opacity=".2"/>
<path d="M160 320 L148 280 L124 268 L148 272 L160 230 L172 272 L196 268 L172 280 Z" fill="#f0f9ff" stroke="#93c5fd" stroke-width="2"/>
<ellipse cx="160" cy="226" rx="28" ry="14" fill="#1d4ed8" opacity=".5"/>
<rect x="145" y="320" width="30" height="65" fill="#6b7280" opacity=".8"/>
<path d="M115 385 Q160 370 205 385 L220 427 L100 427 Z" fill="#374151"/>
<path d="M145 320 Q160 310 175 320" stroke="#93c5fd" stroke-width="2.5" fill="none"/>
<circle cx="35" cy="155" r="6" fill="#fbbf24" opacity=".7"/>
<circle cx="285" cy="145" r="5" fill="#fbbf24" opacity=".6"/>
<circle cx="55" cy="220" r="4" fill="#60a5fa" opacity=".5"/>
<circle cx="265" cy="210" r="4" fill="#60a5fa" opacity=".5"/>
<rect x="15" y="195" width="12" height="6" rx="2" fill="#f472b6" transform="rotate(-25,21,198)" opacity=".7"/>
<rect x="290" y="185" width="11" height="5" rx="2" fill="#34d399" transform="rotate(15,295,187)" opacity=".7"/>
<defs><linearGradient id="sc" x1="0" y1="0" x2="0" y2="1"><stop offset="0%" stop-color="rgba(0,0,0,0)"/><stop offset="100%" stop-color="rgba(0,0,0,0.72)"/></linearGradient></defs><rect x="0" y="330" width="320" height="97" fill="url(#sc)"/></svg>