<svg xmlns="http://www.w3.org/2000/svg" viewBox="0 0 320 427" width="320" height="427">
<defs><linearGradient id="bg" x1="0" y1="0" x2="0.3" y2="1"><stop offset="0%" stop-color="#1c1000"/><stop offset="100%" stop-color="#713f12"/></linearGradient></defs>
<rect width="320" height="427" fill="url(#bg)"/>
<rect x="50" y="110" width="220" height="260" rx="10" fill="#fef9c3" opacity=".95"/>
<rect x="50" y="110" width="220" height="35" rx="10" fill="#fbbf24" opacity=".8"/>
<ellipse cx="70" cy="295" rx="28" ry="14" fill="#fde68a" opacity=".7"/>
<ellipse cx="250" cy="295" rx="28" ry="14" fill="#fde68a" opacity=".7"/>
<circle cx="70" cy="255" r="22" fill="#dc2626" opacity=".85"/>
<circle cx="70" cy="255" r="13" fill="#ef4444"/>
<line x1="70" y1="233" x2="70" y2="241" stroke="#ef4444" stroke-width="3"/>
<circle cx="250" cy="250" r="22" fill="#dc2626" opacity=".85"/>
<circle cx="250" cy="250" r="13" fill="#ef4444"/>
<line x1="250" y1="228" x2="250" y2="236" stroke="#ef4444" stroke-width="3"/>
<path d="M118 200 Q118 178 131 184 Q144 178 144 200 Q144 224 131 235 Q118 224 118 200Z" fill="#f9a8d4" opacity=".7"/>
<path d="M176 192 Q176 172 187 177 Q198 172 198 192 Q198 214 187 224 Q176 214 176 192Z" fill="#f9a8d4" opacity=".7"/>
<polygon points="160,30 170,60 202,60 178,78 186,108 160,90 134,108 142,78 118,60 150,60" fill="#fde68a"/>
<path d="M60 380 Q160 365 260 380" stroke="#fbbf24" stroke-width="2.5" fill="none"/>
<defs><linearGradient id="sc" x1="0" y1="0" x2="0" y2="1"><stop offset="0%" stop-color="rgba(0,0,0,0)"/><stop offset="100%" stop-color="rgba(0,0,0,0.72)"/></linearGradient></defs><rect x="0" y="330" width="320" height="97" fill="url(#sc)"/></svg>