<svg xmlns="http://www.w3.org/2000/svg" viewBox="0 0 320 427" width="320" height="427">
<defs><linearGradient id="bg" x1="0" y1="0" x2="0.3" y2="1"><stop offset="0%" stop-color="#4a0e2e"/><stop offset="100%" stop-color="#831843"/></linearGradient></defs>
<rect width="320" height="427" fill="url(#bg)"/>
<ellipse cx="30" cy="60" rx="18" ry="10" fill="#f9a8d4" opacity=".25" transform="rotate(-20,30,60)"/>
<ellipse cx="290" cy="80" rx="16" ry="9" fill="#f9a8d4" opacity=".2" transform="rotate(15,290,80)"/>
<polygon points="160,70 200,130 160,165 120,130" fill="#fce7f3" stroke="#fbbf24" stroke-width="2.5" opacity=".9"/>
<polygon points="160,70 200,130 160,110" fill="#fde68a" opacity=".5"/>
<line x1="120" y1="130" x2="200" y2="130" stroke="#fbbf24" stroke-width="1.5" opacity=".6"/>
<circle cx="118" cy="255" r="52" fill="none" stroke="#fde68a" stroke-width="5" opacity=".9"/>
<circle cx="202" cy="255" r="52" fill="none" stroke="#fde68a" stroke-width="5" opacity=".9"/>
<circle cx="55" cy="355" r="28" fill="#be185d" opacity=".9"/>
<circle cx="46" cy="344" r="18" fill="#db2777" opacity=".8"/>
<circle cx="58" cy="340" r="14" fill="#ec4899" opacity=".7"/>
<line x1="55" y1="383" x2="50" y2="420" stroke="#15803d" stroke-width="3"/>
<circle cx="265" cy="355" r="28" fill="#be185d" opacity=".9"/>
<circle cx="256" cy="344" r="18" fill="#db2777" opacity=".8"/>
<circle cx="268" cy="340" r="14" fill="#ec4899" opacity=".7"/>
<line x1="265" y1="383" x2="270" y2="420" stroke="#15803d" stroke-width="3"/>
<path d="M130 220 Q130 200 160 205 Q190 200 190 220 Q190 240 160 250 Q130 240 130 220Z" fill="#f9a8d4" opacity=".6"/>
<defs><linearGradient id="sc" x1="0" y1="0" x2="0" y2="1"><stop offset="0%" stop-color="rgba(0,0,0,0)"/><stop offset="100%" stop-color="rgba(0,0,0,0.72)"/></linearGradient></defs><rect x="0" y="330" width="320" height="97" fill="url(#sc)"/></svg>