<svg xmlns="http://www.w3.org/2000/svg" viewBox="0 0 320 427" width="320" height="427">
<defs><linearGradient id="bg" x1="0" y1="0" x2="0" y2="1"><stop offset="0%" stop-color="#1e2a38"/><stop offset="100%" stop-color="#2d3e50"/></linearGradient></defs>
<rect width="320" height="427" fill="url(#bg)"/>
<line x1="160" y1="80" x2="100" y2="130" stroke="#94a3b8" stroke-width="1.2" opacity=".4"/>
<line x1="160" y1="80" x2="160" y2="135" stroke="#94a3b8" stroke-width="1.5" opacity=".5"/>
<line x1="160" y1="80" x2="220" y2="130" stroke="#94a3b8" stroke-width="1.2" opacity=".4"/>
<circle cx="160" cy="75" r="12" fill="#fef9c3" opacity=".4"/>
<line x1="160" y1="400" x2="160" y2="155" stroke="#4b5563" stroke-width="5"/>
<ellipse cx="118" cy="270" rx="50" ry="26" fill="#4b5563" opacity=".6" transform="rotate(-30,118,270)"/>
<ellipse cx="202" cy="250" rx="50" ry="26" fill="#4b5563" opacity=".55" transform="rotate(28,202,250)"/>
<ellipse cx="122" cy="215" rx="44" ry="22" fill="#374151" opacity=".55" transform="rotate(-22,122,215)"/>
<ellipse cx="198" cy="198" rx="44" ry="22" fill="#374151" opacity=".5" transform="rotate(20,198,198)"/>
<ellipse cx="128" cy="170" rx="36" ry="18" fill="#374151" opacity=".5" transform="rotate(-15,128,170)"/>
<circle cx="112" cy="264" r="5" fill="#86efac" opacity=".35"/>
<circle cx="196" cy="244" r="5" fill="#86efac" opacity=".3"/>
<path d="M40 360 Q160 345 280 360" stroke="#64748b" stroke-width="2" stroke-dasharray="5,4" fill="none" opacity=".5"/>
<defs><linearGradient id="sc" x1="0" y1="0" x2="0" y2="1"><stop offset="0%" stop-color="rgba(0,0,0,0)"/><stop offset="100%" stop-color="rgba(0,0,0,0.72)"/></linearGradient></defs><rect x="0" y="330" width="320" height="97" fill="url(#sc)"/></svg>