<svg xmlns="http://www.w3.org/2000/svg" viewBox="0 0 320 427" width="320" height="427">
<defs><linearGradient id="bg" x1="0" y1="0" x2="0.2" y2="1"><stop offset="0%" stop-color="#0d1b4c"/><stop offset="100%" stop-color="#283593"/></linearGradient></defs>
<rect width="320" height="427" fill="url(#bg)"/>
<rect x="55" y="150" width="210" height="230" rx="10" fill="#fef9c3" stroke="#fbbf24" stroke-width="3"/>
<ellipse cx="55" cy="265" rx="16" ry="115" fill="#fef3c7" stroke="#fbbf24" stroke-width="2.5"/>
<ellipse cx="265" cy="265" rx="16" ry="115" fill="#fef3c7" stroke="#fbbf24" stroke-width="2.5"/>
<rect x="148" y="150" width="24" height="230" fill="#ef4444" opacity=".3"/>
<rect x="85" y="188" width="150" height="8" rx="2" fill="#1e3a8a" opacity=".4"/>
<rect x="90" y="206" width="140" height="8" rx="2" fill="#1e3a8a" opacity=".35"/>
<rect x="95" y="224" width="130" height="8" rx="2" fill="#1e3a8a" opacity=".3"/>
<rect x="90" y="242" width="140" height="8" rx="2" fill="#1e3a8a" opacity=".3"/>
<rect x="85" y="260" width="150" height="8" rx="2" fill="#1e3a8a" opacity=".25"/>
<circle cx="160" cy="318" r="28" fill="#fbbf24" opacity=".8"/>
<path d="M146 318 L156 330 L178 306" stroke="#166534" stroke-width="5" fill="none" stroke-linecap="round" stroke-linejoin="round"/>
<polygon points="160,60 168,86 196,86 174,102 182,128 160,112 138,128 146,102 124,86 152,86" fill="#fbbf24" opacity=".9"/>
<rect x="20" y="170" width="14" height="7" rx="2" fill="#f472b6" transform="rotate(-30,27,173)" opacity=".8"/>
<rect x="284" y="160" width="13" height="6" rx="2" fill="#34d399" transform="rotate(20,290,163)" opacity=".8"/>
<defs><linearGradient id="sc" x1="0" y1="0" x2="0" y2="1"><stop offset="0%" stop-color="rgba(0,0,0,0)"/><stop offset="100%" stop-color="rgba(0,0,0,0.72)"/></linearGradient></defs><rect x="0" y="330" width="320" height="97" fill="url(#sc)"/></svg>