<svg xmlns="http://www.w3.org/2000/svg" viewBox="0 0 320 427" width="320" height="427">
<defs><linearGradient id="bg" x1="0" y1="0" x2="0.2" y2="1"><stop offset="0%" stop-color="#0d1b4c"/><stop offset="100%" stop-color="#374151"/></linearGradient></defs>
<rect width="320" height="427" fill="url(#bg)"/>
<circle cx="20" cy="25" r="2" fill="#fff" opacity=".6"/><circle cx="80" cy="15" r="1.5" fill="#fff" opacity=".5"/>
<circle cx="250" cy="20" r="2" fill="#fff" opacity=".6"/><circle cx="300" cy="35" r="1.5" fill="#fff" opacity=".5"/>
<rect x="80" y="110" width="160" height="200" rx="10" fill="#1e3a8a" stroke="#93c5fd" stroke-width="2"/>
<rect x="80" y="110" width="160" height="30" rx="10" fill="#93c5fd" opacity=".3"/>
<path d="M140 110 Q160 80 180 110" stroke="#fbbf24" stroke-width="3" fill="none"/>
<circle cx="160" cy="78" r="15" fill="#fde68a" stroke="#fbbf24" stroke-width="2"/>
<path d="M150 108 L155 140 L160 130 L165 140 L170 108" stroke="#fbbf24" stroke-width="2" fill="none"/>
<line x1="115" y1="160" x2="205" y2="160" stroke="#93c5fd" stroke-width="2" opacity=".5"/>
<line x1="115" y1="178" x2="205" y2="178" stroke="#93c5fd" stroke-width="2" opacity=".4"/>
<line x1="115" y1="196" x2="175" y2="196" stroke="#93c5fd" stroke-width="2" opacity=".35"/>
<rect x="115" y="220" width="90" height="75" rx="5" fill="#fbbf24" opacity=".15"/>
<circle cx="55" cy="220" r="28" fill="#fde68a" opacity=".8"/>
<circle cx="55" cy="220" r="18" fill="#f59e0b"/>
<line x1="55" y1="184" x2="55" y2="192" stroke="#fbbf24" stroke-width="3.5" stroke-linecap="round"/>
<line x1="79" y1="196" x2="73" y2="201" stroke="#fbbf24" stroke-width="3"/>
<line x1="84" y1="220" x2="76" y2="220" stroke="#fbbf24" stroke-width="3"/>
<defs><linearGradient id="sc" x1="0" y1="0" x2="0" y2="1"><stop offset="0%" stop-color="rgba(0,0,0,0)"/><stop offset="100%" stop-color="rgba(0,0,0,0.72)"/></linearGradient></defs><rect x="0" y="330" width="320" height="97" fill="url(#sc)"/></svg>