<svg xmlns="http://www.w3.org/2000/svg" viewBox="0 0 320 427" width="320" height="427">
<defs><linearGradient id="bg" x1="0" y1="0" x2="0.3" y2="1"><stop offset="0%" stop-color="#4a0020"/><stop offset="100%" stop-color="#c2410c"/></linearGradient></defs>
<rect width="320" height="427" fill="url(#bg)"/>
<path d="M20 265 Q20 225 50 220 L130 220 Q148 220 148 236 L148 268 Q148 284 130 288 L60 288 Q20 284 20 265Z" fill="#fddcb5" stroke="#fbbf24" stroke-width="2.5"/>
<path d="M300 265 Q300 225 270 220 L190 220 Q172 220 172 236 L172 268 Q172 284 190 288 L260 288 Q300 284 300 265Z" fill="#fddcb5" stroke="#a78bfa" stroke-width="2.5"/>
<rect x="128" y="220" width="64" height="24" rx="12" fill="#fddcb5" stroke="#fbbf24" stroke-width="2"/>
<rect x="115" y="270" width="90" height="14" rx="7" fill="#f472b6" opacity=".8"/>
<line x1="118" y1="277" x2="202" y2="277" stroke="#fbbf24" stroke-width="1.5" stroke-dasharray="3,2" opacity=".7"/>
<path d="M60 140 Q60 110 78 116 Q96 110 96 140 Q96 172 78 185 Q60 172 60 140Z" fill="#fce7f3" opacity=".85"/>
<path d="M175 128 Q175 100 191 105 Q207 100 207 128 Q207 158 191 170 Q175 158 175 128Z" fill="#bae6fd" opacity=".85"/>
<path d="M113 88 Q113 66 126 71 Q139 66 139 88 Q139 112 126 122 Q113 112 113 88Z" fill="#fb923c" opacity=".8"/>
<circle cx="25" cy="78" r="10" fill="#fbbf24" opacity=".7"/>
<circle cx="295" cy="68" r="8" fill="#fbbf24" opacity=".65"/>
<rect x="18" y="180" width="14" height="7" rx="2" fill="#34d399" transform="rotate(-25,25,183)" opacity=".8"/>
<rect x="285" y="170" width="13" height="6" rx="2" fill="#818cf8" transform="rotate(15,291,173)" opacity=".8"/>
<defs><linearGradient id="sc" x1="0" y1="0" x2="0" y2="1"><stop offset="0%" stop-color="rgba(0,0,0,0)"/><stop offset="100%" stop-color="rgba(0,0,0,0.72)"/></linearGradient></defs><rect x="0" y="330" width="320" height="97" fill="url(#sc)"/></svg>