<svg xmlns="http://www.w3.org/2000/svg" viewBox="0 0 320 427" width="320" height="427">
<defs><linearGradient id="bg" x1="0" y1="0" x2="0" y2="1"><stop offset="0%" stop-color="#e0f2fe"/><stop offset="100%" stop-color="#ccfbf1"/></linearGradient></defs>
<rect width="320" height="427" fill="url(#bg)"/>
<ellipse cx="60" cy="55" rx="50" ry="28" fill="white" opacity=".7"/>
<ellipse cx="260" cy="70" rx="45" ry="25" fill="white" opacity=".6"/>
<line x1="160" y1="427" x2="160" y2="220" stroke="#15803d" stroke-width="5"/>
<line x1="160" y1="340" x2="100" y2="270" stroke="#15803d" stroke-width="4"/>
<line x1="160" y1="320" x2="220" y2="260" stroke="#15803d" stroke-width="4"/>
<line x1="160" y1="300" x2="80" y2="240" stroke="#15803d" stroke-width="3"/>
<line x1="160" y1="300" x2="240" y2="235" stroke="#15803d" stroke-width="3"/>
<circle cx="160" cy="185" r="42" fill="#f9a8d4" opacity=".9"/>
<circle cx="160" cy="163" r="22" fill="#f9a8d4" opacity=".8"/>
<circle cx="182" cy="173" r="22" fill="#f9a8d4" opacity=".8"/>
<circle cx="138" cy="173" r="22" fill="#f9a8d4" opacity=".8"/>
<circle cx="160" cy="200" r="22" fill="#f9a8d4" opacity=".8"/>
<circle cx="160" cy="185" r="22" fill="#fbbf24"/>
<circle cx="160" cy="185" r="10" fill="#92400e" opacity=".6"/>
<circle cx="95" cy="240" r="32" fill="#bae6fd" opacity=".9"/>
<circle cx="95" cy="222" r="17" fill="#bae6fd"/><circle cx="113" cy="232" r="17" fill="#bae6fd"/>
<circle cx="77" cy="232" r="17" fill="#bae6fd"/><circle cx="95" cy="252" r="17" fill="#bae6fd"/>
<circle cx="95" cy="240" r="16" fill="#fbbf24"/>
<circle cx="225" cy="235" r="30" fill="#fef08a" opacity=".9"/>
<circle cx="225" cy="219" r="16" fill="#fef08a"/><circle cx="241" cy="228" r="16" fill="#fef08a"/>
<circle cx="209" cy="228" r="16" fill="#fef08a"/><circle cx="225" cy="248" r="16" fill="#fef08a"/>
<circle cx="225" cy="235" r="15" fill="#fb923c"/>
<path d="M255 75 Q255 50 275 57 Q295 50 295 75 Q295 104 275 118 Q255 104 255 75Z" fill="#fce7f3" stroke="#f472b6" stroke-width="3"/>
<rect x="269" y="65" width="12" height="40" rx="3" fill="#ef4444"/>
<rect x="259" y="81" width="32" height="12" rx="3" fill="#ef4444"/>
<defs><linearGradient id="sc" x1="0" y1="0" x2="0" y2="1"><stop offset="0%" stop-color="rgba(0,0,0,0)"/><stop offset="100%" stop-color="rgba(0,0,0,0.72)"/></linearGradient></defs><rect x="0" y="330" width="320" height="97" fill="url(#sc)"/></svg>