<svg xmlns="http://www.w3.org/2000/svg" viewBox="0 0 320 427" width="320" height="427">
<defs><linearGradient id="bg" x1="0" y1="0" x2="0.2" y2="1"><stop offset="0%" stop-color="#1c1006"/><stop offset="100%" stop-color="#78350f"/></linearGradient></defs>
<rect width="320" height="427" fill="url(#bg)"/>
<circle cx="160" cy="145" r="55" fill="#16a34a" opacity=".85"/>
<circle cx="160" cy="90" r="55" fill="#16a34a" opacity=".85"/>
<circle cx="105" cy="118" r="55" fill="#16a34a" opacity=".85"/>
<circle cx="215" cy="118" r="55" fill="#16a34a" opacity=".85"/>
<circle cx="160" cy="118" r="28" fill="#15803d"/>
<circle cx="148" cy="105" r="12" fill="#86efac" opacity=".3"/>
<path d="M160 173 Q155 215 145 260" stroke="#15803d" stroke-width="6" fill="none" stroke-linecap="round"/>
<path d="M65 390 Q52 335 72 295 Q95 255 160 250 Q225 255 248 295 Q268 335 255 390" stroke="#fbbf24" stroke-width="12" fill="none" stroke-linecap="round"/>
<line x1="55" y1="390" x2="75" y2="390" stroke="#fbbf24" stroke-width="12" stroke-linecap="round"/>
<line x1="245" y1="390" x2="265" y2="390" stroke="#fbbf24" stroke-width="12" stroke-linecap="round"/>
<circle cx="70" cy="380" r="6" fill="#1c1006"/>
<circle cx="250" cy="380" r="6" fill="#1c1006"/>
<circle cx="62" cy="355" r="6" fill="#1c1006"/>
<circle cx="258" cy="355" r="6" fill="#1c1006"/>
<circle cx="22" cy="45" r="8" fill="#fbbf24" opacity=".7"/>
<circle cx="270" cy="38" r="7" fill="#fde68a" opacity=".65"/>
<circle cx="285" cy="215" r="6" fill="#fde68a" opacity=".5"/>
<defs><linearGradient id="sc" x1="0" y1="0" x2="0" y2="1"><stop offset="0%" stop-color="rgba(0,0,0,0)"/><stop offset="100%" stop-color="rgba(0,0,0,0.72)"/></linearGradient></defs><rect x="0" y="330" width="320" height="97" fill="url(#sc)"/></svg>