<svg xmlns="http://www.w3.org/2000/svg" viewBox="0 0 320 427" width="320" height="427">
<defs><linearGradient id="bg" x1="0" y1="0" x2="0.2" y2="1"><stop offset="0%" stop-color="#0d1b4c"/><stop offset="100%" stop-color="#1e3a8a"/></linearGradient></defs>
<rect width="320" height="427" fill="url(#bg)"/>
<circle cx="25" cy="25" r="2.5" fill="#fbbf24" opacity=".8"/><circle cx="80" cy="15" r="2" fill="#fbbf24" opacity=".7"/>
<circle cx="140" cy="28" r="2.5" fill="#fbbf24" opacity=".8"/><circle cx="260" cy="18" r="2" fill="#fbbf24" opacity=".7"/>
<circle cx="295" cy="35" r="2.5" fill="#fbbf24" opacity=".8"/>
<ellipse cx="160" cy="148" rx="95" ry="26" fill="#1e3a8a"/>
<rect x="90" y="88" width="140" height="62" rx="6" fill="#1e3a8a" stroke="#93c5fd" stroke-width="2"/>
<line x1="255" y1="148" x2="285" y2="196" stroke="#fbbf24" stroke-width="5" stroke-linecap="round"/>
<circle cx="285" cy="202" r="14" fill="#fbbf24"/>
<line x1="278" y1="216" x2="272" y2="240" stroke="#fbbf24" stroke-width="3"/>
<line x1="285" y1="216" x2="285" y2="240" stroke="#fbbf24" stroke-width="3"/>
<line x1="292" y1="216" x2="298" y2="240" stroke="#fbbf24" stroke-width="3"/>
<rect x="55" y="240" width="210" height="140" rx="10" fill="#fef9c3" stroke="#fbbf24" stroke-width="3"/>
<ellipse cx="55" cy="310" rx="18" ry="70" fill="#fef3c7" stroke="#fbbf24" stroke-width="2.5"/>
<ellipse cx="265" cy="310" rx="18" ry="70" fill="#fef3c7" stroke="#fbbf24" stroke-width="2.5"/>
<rect x="150" y="240" width="20" height="140" fill="#ef4444" opacity=".45"/>
<rect x="85" y="272" width="150" height="8" rx="2" fill="#92400e" opacity=".35"/>
<rect x="95" y="288" width="130" height="8" rx="2" fill="#92400e" opacity=".3"/>
<rect x="105" y="304" width="110" height="8" rx="2" fill="#92400e" opacity=".25"/>
<circle cx="160" cy="355" r="16" fill="#fbbf24" stroke="#b45309" stroke-width="2"/>
<rect x="15" y="185" width="18" height="8" rx="2" fill="#f472b6" transform="rotate(-30,24,189)" opacity=".8"/>
<rect x="283" y="175" width="16" height="7" rx="2" fill="#34d399" transform="rotate(20,291,178)" opacity=".8"/>
<defs><linearGradient id="sc" x1="0" y1="0" x2="0" y2="1"><stop offset="0%" stop-color="rgba(0,0,0,0)"/><stop offset="100%" stop-color="rgba(0,0,0,0.72)"/></linearGradient></defs><rect x="0" y="330" width="320" height="97" fill="url(#sc)"/></svg>