<svg xmlns="http://www.w3.org/2000/svg" viewBox="0 0 320 427" width="320" height="427">
<defs><linearGradient id="bg" x1="0" y1="0" x2="0" y2="1"><stop offset="0%" stop-color="#fffbeb"/><stop offset="100%" stop-color="#fed7aa"/></linearGradient></defs>
<rect width="320" height="427" fill="url(#bg)"/>
<circle cx="160" cy="55" r="38" fill="#fbbf24" opacity=".9"/>
<circle cx="160" cy="55" r="28" fill="#fde68a"/>
<line x1="160" y1="5" x2="160" y2="14" stroke="#fbbf24" stroke-width="4" stroke-linecap="round"/>
<line x1="196" y1="14" x2="190" y2="21" stroke="#fbbf24" stroke-width="3.5"/>
<line x1="207" y1="46" x2="198" y2="49" stroke="#fbbf24" stroke-width="3.5"/>
<line x1="124" y1="14" x2="130" y2="21" stroke="#fbbf24" stroke-width="3.5"/>
<line x1="113" y1="46" x2="122" y2="49" stroke="#fbbf24" stroke-width="3.5"/>
<rect x="88" y="170" width="144" height="230" rx="4" fill="#fef3c7" stroke="#92400e" stroke-width="3.5"/>
<path d="M88 170 Q88 118 160 110 Q232 118 232 170" stroke="#92400e" stroke-width="3.5" fill="#fef9c3"/>
<rect x="98" y="182" width="52" height="70" rx="4" stroke="#92400e" stroke-width="2" fill="none"/>
<rect x="170" y="182" width="52" height="70" rx="4" stroke="#92400e" stroke-width="2" fill="none"/>
<rect x="98" y="264" width="52" height="80" rx="4" stroke="#92400e" stroke-width="2" fill="none"/>
<rect x="170" y="264" width="52" height="80" rx="4" stroke="#92400e" stroke-width="2" fill="none"/>
<circle cx="182" cy="308" r="10" fill="#fbbf24" stroke="#92400e" stroke-width="2"/>
<rect x="22" y="350" width="44" height="48" rx="5" fill="#92400e" opacity=".7"/>
<ellipse cx="44" cy="350" rx="28" ry="10" fill="#78350f"/>
<line x1="44" y1="340" x2="44" y2="295" stroke="#15803d" stroke-width="4"/>
<circle cx="44" cy="278" r="24" fill="#f9a8d4"/><circle cx="44" cy="278" r="12" fill="#fbbf24"/>
<rect x="254" y="350" width="44" height="48" rx="5" fill="#92400e" opacity=".7"/>
<ellipse cx="276" cy="350" rx="28" ry="10" fill="#78350f"/>
<line x1="276" y1="340" x2="276" y2="295" stroke="#15803d" stroke-width="4"/>
<circle cx="276" cy="278" r="24" fill="#86efac"/><circle cx="276" cy="278" r="12" fill="#fbbf24"/>
<defs><linearGradient id="sc" x1="0" y1="0" x2="0" y2="1"><stop offset="0%" stop-color="rgba(0,0,0,0)"/><stop offset="100%" stop-color="rgba(0,0,0,0.72)"/></linearGradient></defs><rect x="0" y="330" width="320" height="97" fill="url(#sc)"/></svg>